<svg width="180" height="40" viewBox="0 0 180 40" fill="none" xmlns="http://www.w3.org/2000/svg">
  <!-- Definitions -->
  <defs>
    <linearGradient id="logoGradient" x1="0%" y1="0%" x2="100%" y2="100%">
      <stop offset="0%" stop-color="#2EC7B7" />
      <stop offset="100%" stop-color="#1FA396" />
    </linearGradient>
    <linearGradient id="textGradient" x1="0%" y1="0%" x2="100%" y2="0%">
      <stop offset="0%" stop-color="#2EC7B7" />
      <stop offset="100%" stop-color="#26AFA1" />
    </linearGradient>
    <style>
      @font-face {
        font-family: 'Ahsing';
        src: url('/fonts/ahsing.otf') format('opentype');
      }
    </style>
  </defs>
  
  <!-- Icon -->
  <g>
    <!-- Main circle background -->
    <circle cx="20" cy="20" r="18" fill="url(#logoGradient)" />
    
    <!-- Phone icon -->
    <path 
      d="M16.5 12.5C16.5 11.672 17.172 11 18 11H22C22.828 11 23.5 11.672 23.5 12.5V27.5C23.5 28.328 22.828 29 22 29H18C17.172 29 16.5 28.328 16.5 27.5V12.5Z" 
      fill="white"
      opacity="0.95"
    />
    <circle cx="20" cy="26" r="1.2" fill="url(#logoGradient)" />
    
    <!-- Sound waves -->
    <path 
      d="M26 16C27.5 17.5 28.5 19.5 28.5 20C28.5 20.5 27.5 22.5 26 24" 
      stroke="white" 
      stroke-width="1.5" 
      stroke-linecap="round"
      opacity="0.8"
    />
    <path 
      d="M29 14C31.5 16 33 18 33 20C33 22 31.5 24 29 26" 
      stroke="white" 
      stroke-width="1.5" 
      stroke-linecap="round"
      opacity="0.5"
    />
  </g>
  
  <!-- CALLYY Text in Ahsing font -->
  <text 
    x="50" 
    y="29" 
    font-family="Ahsing, sans-serif" 
    font-size="28" 
    letter-spacing="0.05em"
    fill="url(#textGradient)"
  >CALLYY</text>
</svg>
